{
  "accessors": [
    {
      "bufferView": 1,
      "componentType": 5126,
      "count": 6420,
      "max": [
        4.621500015258789,
        0.7839999794960022,
        1.5884000062942505
      ],
      "min": [
        -4.510100364685059,
        -0.65829998254776,
        -2.2562999725341797
      ],
      "type": "VEC3"
    },
    {
      "bufferView": 1,
      "byteOffset": 77040,
      "componentType": 5126,
      "count": 6420,
      "max": [
        1.0,
        1.0,
        1.0
      ],
      "min": [
        -1.0,
        -1.0,
        -1.0
      ],
      "type": "VEC3"
    },
    {
      "bufferView": 0,
      "componentType": 5125,
      "count": 57600,
      "type": "SCALAR"
    },
    {
      "bufferView": 1,
      "byteOffset": 154080,
      "componentType": 5126,
      "count": 5136,
      "max": [
        4.64948844909668,
        2.07669997215271,
        1.7056999206542969
      ],
      "min": [
        -4.510100364685059,
        -0.9253999590873718,
        -1.9996999502182007
      ],
      "type": "VEC3"
    },
    {
      "bufferView": 1,
      "byteOffset": 215712,
      "componentType": 5126,
      "count": 5136,
      "max": [
        1.0,
        1.0,
        1.0
      ],
      "min": [
        -1.0,
        -1.0,
        -1.0
      ],
      "type": "VEC3"
    },
    {
      "bufferView": 0,
      "byteOffset": 230400,
      "componentType": 5125,
      "count": 57600,
      "type": "SCALAR"
    },
    {
      "bufferView": 1,
      "byteOffset": 277344,
      "componentType": 5126,
      "count": 5778,
      "max": [
        3.7274999618530273,
        1.6338000297546387,
        0.920799970626831
      ],
      "min": [
        -4.2447004318237305,
        -0.9253999590873718,
        -2.2562999725341797
      ],
      "type": "VEC3"
    },
    {
      "bufferView": 1,
      "byteOffset": 346680,
      "componentType": 5126,
      "count": 5778,
      "max": [
        1.0,
        1.0,
        1.0
      ],
      "min": [
        -1.0,
        -1.0,
        -1.0
      ],
      "type": "VEC3"
    },
    {
      "bufferView": 0,
      "byteOffset": 460800,
      "componentType": 5125,
      "count": 57600,
      "type": "SCALAR"
    },
    {
      "bufferView": 1,
      "byteOffset": 416016,
      "componentType": 5126,
      "count": 5778,
      "max": [
        4.147799968719482,
        2.07669997215271,
        1.934399962425232
      ],
      "min": [
        -3.1536998748779297,
        -0.7322999835014343,
        -1.9996999502182007
      ],
      "type": "VEC3"
    },
    {
      "bufferView": 1,
      "byteOffset": 485352,
      "componentType": 5126,
      "count": 5778,
      "max": [
        1.0,
        1.0,
        1.0
      ],
      "min": [
        -1.0,
        -1.0,
        -1.0
      ],
      "type": "VEC3"
    },
    {
      "bufferView": 0,
      "byteOffset": 691200,
      "componentType": 5125,
      "count": 57600,
      "type": "SCALAR"
    },
    {
      "bufferView": 1,
      "byteOffset": 554688,
      "componentType": 5126,
      "count": 5856,
      "max": [
        4.147799968719482,
        2.33853816986084,
        2.1170129776000977
      ],
      "min": [
        -3.487891912460327,
        -0.9114305377006531,
        -2.650961399078369
      ],
      "type": "VEC3"
    },
    {
      "bufferView": 1,
      "byteOffset": 624960,
      "componentType": 5126,
      "count": 5856,
      "max": [
        1.0,
        1.0,
        1.0
      ],
      "min": [
        -1.0,
        -1.0,
        -1.0
      ],
      "type": "VEC3"
    },
    {
      "bufferView": 0,
      "byteOffset": 921600,
      "componentType": 5125,
      "count": 55920,
      "type": "SCALAR"
    },
    {
      "bufferView": 1,
      "byteOffset": 695232,
      "componentType": 5126,
      "count": 9636,
      "max": [
        4.860999584197998,
        2.316200017929077,
        2.1738998889923096
      ],
      "min": [
        -4.839052200317383,
        -1.0013223886489868,
        -2.6056270599365234
      ],
      "type": "VEC3"
    },
    {
      "bufferView": 1,
      "byteOffset": 810864,
      "componentType": 5126,
      "count": 9636,
      "max": [
        1.0,
        1.0,
        1.0
      ],
      "min": [
        -1.0,
        -1.0,
        -1.0
      ],
      "type": "VEC3"
    },
    {
      "bufferView": 0,
      "byteOffset": 1145280,
      "componentType": 5125,
      "count": 55704,
      "type": "SCALAR"
    },
    {
      "bufferView": 1,
      "byteOffset": 926496,
      "componentType": 5126,
      "count": 6942,
      "max": [
        5.1172285079956055,
        2.2822823524475098,
        2.28977370262146
      ],
      "min": [
        -4.728392124176025,
        -1.3397008180618286,
        -2.3861191272735596
      ],
      "type": "VEC3"
    },
    {
      "bufferView": 1,
      "byteOffset": 1009800,
      "componentType": 5126,
      "count": 6942,
      "max": [
        1.0,
        1.0,
        1.0
      ],
      "min": [
        -1.0,
        -1.0,
        -1.0
      ],
      "type": "VEC3"
    },
    {
      "bufferView": 0,
      "byteOffset": 1368096,
      "componentType": 5125,
      "count": 34224,
      "type": "SCALAR"
    },
    {
      "bufferView": 1,
      "byteOffset": 1093104,
      "componentType": 5126,
      "count": 3498,
      "max": [
        5.941999912261963,
        0.14375799894332886,
        1.4137001037597656
      ],
      "min": [
        -5.5183000564575195,
        -1.3162999153137207,
        -0.4921000003814697
      ],
      "type": "VEC3"
    },
    {
      "bufferView": 1,
      "byteOffset": 1135080,
      "componentType": 5126,
      "count": 3498,
      "max": [
        1.0,
        1.0,
        1.0
      ],
      "min": [
        -1.0,
        -1.0,
        -1.0
      ],
      "type": "VEC3"
    },
    {
      "bufferView": 0,
      "byteOffset": 1504992,
      "componentType": 5125,
      "count": 23904,
      "type": "SCALAR"
    },
    {
      "bufferView": 1,
      "byteOffset": 1177056,
      "componentType": 5126,
      "count": 9630,
      "max": [
        4.757499694824219,
        2.7488999366760254,
        2.712599992752075
      ],
      "min": [
        -5.701099872589111,
        -1.5722999572753906,
        -2.3324999809265137
      ],
      "type": "VEC3"
    },
    {
      "bufferView": 1,
      "byteOffset": 1292616,
      "componentType": 5126,
      "count": 9630,
      "max": [
        1.0,
        1.0,
        1.0
      ],
      "min": [
        -1.0,
        -1.0,
        -1.0
      ],
      "type": "VEC3"
    },
    {
      "bufferView": 0,
      "byteOffset": 1600608,
      "componentType": 5125,
      "count": 57600,
      "type": "SCALAR"
    },
    {
      "bufferView": 1,
      "byteOffset": 1408176,
      "componentType": 5126,
      "count": 9630,
      "max": [
        4.656000137329102,
        2.329200029373169,
        2.836199998855591
      ],
      "min": [
        -3.9210000038146973,
        -1.8264999389648438,
        -3.2945001125335693
      ],
      "type": "VEC3"
    },
    {
      "bufferView": 1,
      "byteOffset": 1523736,
      "componentType": 5126,
      "count": 9630,
      "max": [
        1.0,
        1.0,
        1.0
      ],
      "min": [
        -1.0,
        -1.0,
        -1.0
      ],
      "type": "VEC3"
    },
    {
      "bufferView": 0,
      "byteOffset": 1831008,
      "componentType": 5125,
      "count": 57600,
      "type": "SCALAR"
    },
    {
      "bufferView": 1,
      "byteOffset": 1639296,
      "componentType": 5126,
      "count": 9858,
      "max": [
        4.4344000816345215,
        2.623401165008545,
        2.7610549926757813
      ],
      "min": [
        -5.250699996948242,
        -2.006500005722046,
        -3.193000078201294
      ],
      "type": "VEC3"
    },
    {
      "bufferView": 1,
      "byteOffset": 1757592,
      "componentType": 5126,
      "count": 9858,
      "max": [
        1.0,
        1.0,
        1.0
      ],
      "min": [
        -1.0,
        -1.0,
        -1.0
      ],
      "type": "VEC3"
    },
    {
      "bufferView": 0,
      "byteOffset": 2061408,
      "componentType": 5125,
      "count": 54456,
      "type": "SCALAR"
    },
    {
      "bufferView": 1,
      "byteOffset": 1875888,
      "componentType": 5126,
      "count": 8850,
      "max": [
        4.637248516082764,
        2.5014095306396484,
        2.937700033187866
      ],
      "min": [
        -5.591707229614258,
        -2.1080000400543213,
        -3.1944000720977783
      ],
      "type": "VEC3"
    },
    {
      "bufferView": 1,
      "byteOffset": 1982088,
      "componentType": 5126,
      "count": 8850,
      "max": [
        1.0,
        1.0,
        1.0
      ],
      "min": [
        -1.0,
        -1.0,
        -1.0
      ],
      "type": "VEC3"
    },
    {
      "bufferView": 0,
      "byteOffset": 2279232,
      "componentType": 5125,
      "count": 51432,
      "type": "SCALAR"
    }
  ],
  "asset": {
    "extras": {
      "author": "S.Duce (https://sketchfab.com/sduce)",
      "license": "CC-BY-4.0 (http://creativecommons.org/licenses/by/4.0/)",
      "source": "https://sketchfab.com/3d-models/testosterone-hormone-molecule-ad55e4b0292043299d478e329a6fd9ab",
      "title": "Testosterone Hormone Molecule"
    },
    "generator": "Sketchfab-13.58.0",
    "version": "2.0"
  },
  "bufferViews": [
    {
      "buffer": 0,
      "byteLength": 2484960,
      "name": "floatBufferViews",
      "target": 34963
    },
    {
      "buffer": 0,
      "byteLength": 2088288,
      "byteOffset": 2484960,
      "byteStride": 12,
      "name": "floatBufferViews",
      "target": 34962
    }
  ],
  "buffers": [
    {
      "byteLength": 4573248,
      "uri": "scene.bin"
    }
  ],
  "materials": [
    {
      "doubleSided": true,
      "name": "k909090",
      "pbrMetallicRoughness": {
        "baseColorFactor": [
          0.566,
          0.566,
          0.566,
          1.0
        ],
        "metallicFactor": 0.0,
        "roughnessFactor": 0.9106721441304432
      }
    },
    {
      "doubleSided": true,
      "name": "kff0d0d",
      "pbrMetallicRoughness": {
        "baseColorFactor": [
          1.0,
          0.055,
          0.055,
          1.0
        ],
        "metallicFactor": 0.0,
        "roughnessFactor": 0.9106721441304432
      }
    },
    {
      "doubleSided": true,
      "name": "kffffff",
      "pbrMetallicRoughness": {
        "metallicFactor": 0.0,
        "roughnessFactor": 0.9106721441304432
      }
    }
  ],
  "meshes": [
    {
      "name": "Object_0",
      "primitives": [
        {
          "attributes": {
            "NORMAL": 1,
            "POSITION": 0
          },
          "indices": 2,
          "material": 0,
          "mode": 4
        }
      ]
    },
    {
      "name": "Object_1",
      "primitives": [
        {
          "attributes": {
            "NORMAL": 4,
            "POSITION": 3
          },
          "indices": 5,
          "material": 0,
          "mode": 4
        }
      ]
    },
    {
      "name": "Object_2",
      "primitives": [
        {
          "attributes": {
            "NORMAL": 7,
            "POSITION": 6
          },
          "indices": 8,
          "material": 0,
          "mode": 4
        }
      ]
    },
    {
      "name": "Object_3",
      "primitives": [
        {
          "attributes": {
            "NORMAL": 10,
            "POSITION": 9
          },
          "indices": 11,
          "material": 0,
          "mode": 4
        }
      ]
    },
    {
      "name": "Object_4",
      "primitives": [
        {
          "attributes": {
            "NORMAL": 13,
            "POSITION": 12
          },
          "indices": 14,
          "material": 0,
          "mode": 4
        }
      ]
    },
    {
      "name": "Object_5",
      "primitives": [
        {
          "attributes": {
            "NORMAL": 16,
            "POSITION": 15
          },
          "indices": 17,
          "material": 0,
          "mode": 4
        }
      ]
    },
    {
      "name": "Object_6",
      "primitives": [
        {
          "attributes": {
            "NORMAL": 19,
            "POSITION": 18
          },
          "indices": 20,
          "material": 0,
          "mode": 4
        }
      ]
    },
    {
      "name": "Object_7",
      "primitives": [
        {
          "attributes": {
            "NORMAL": 22,
            "POSITION": 21
          },
          "indices": 23,
          "material": 1,
          "mode": 4
        }
      ]
    },
    {
      "name": "Object_8",
      "primitives": [
        {
          "attributes": {
            "NORMAL": 25,
            "POSITION": 24
          },
          "indices": 26,
          "material": 2,
          "mode": 4
        }
      ]
    },
    {
      "name": "Object_9",
      "primitives": [
        {
          "attributes": {
            "NORMAL": 28,
            "POSITION": 27
          },
          "indices": 29,
          "material": 2,
          "mode": 4
        }
      ]
    },
    {
      "name": "Object_10",
      "primitives": [
        {
          "attributes": {
            "NORMAL": 31,
            "POSITION": 30
          },
          "indices": 32,
          "material": 2,
          "mode": 4
        }
      ]
    },
    {
      "name": "Object_11",
      "primitives": [
        {
          "attributes": {
            "NORMAL": 34,
            "POSITION": 33
          },
          "indices": 35,
          "material": 2,
          "mode": 4
        }
      ]
    }
  ],
  "nodes": [
    {
      "children": [
        1
      ],
      "matrix": [
        0.9665545225143433,
        -0.12467069178819651,
        -0.22411964833736422,
        0.0,
        -0.21674135327339172,
        0.070068418979645,
        -0.9737112522125244,
        0.0,
        0.13709697127342224,
        0.9897210001945496,
        0.04070364683866523,
        0.0,
        0.0,
        0.0,
        0.0,
        1.0
      ],
      "name": "Sketchfab_model"
    },
    {
      "children": [
        2,
        3,
        4,
        5,
        6,
        7,
        8,
        9,
        10,
        11,
        12,
        13
      ],
      "name": "Testosterone.obj.cleaner.materialmerger.gles"
    },
    {
      "mesh": 0,
      "name": "Object_2"
    },
    {
      "mesh": 1,
      "name": "Object_3"
    },
    {
      "mesh": 2,
      "name": "Object_4"
    },
    {
      "mesh": 3,
      "name": "Object_5"
    },
    {
      "mesh": 4,
      "name": "Object_6"
    },
    {
      "mesh": 5,
      "name": "Object_7"
    },
    {
      "mesh": 6,
      "name": "Object_8"
    },
    {
      "mesh": 7,
      "name": "Object_9"
    },
    {
      "mesh": 8,
      "name": "Object_10"
    },
    {
      "mesh": 9,
      "name": "Object_11"
    },
    {
      "mesh": 10,
      "name": "Object_12"
    },
    {
      "mesh": 11,
      "name": "Object_13"
    }
  ],
  "scene": 0,
  "scenes": [
    {
      "name": "Sketchfab_Scene",
      "nodes": [
        0
      ]
    }
  ]
}
