<svg xmlns="http://www.w3.org/2000/svg" version="1.1" xmlns:xlink="http://www.w3.org/1999/xlink" xmlns:svgjs="http://svgjs.dev/svgjs" width="1500" height="1500" viewBox="0 0 1500 1500"><rect width="1500" height="1500" fill="#000000"></rect><g transform="matrix(0.6666666666666666,0,0,0.6666666666666666,249.9604018920421,380.63265856950073)"><svg viewBox="0 0 334 247" data-background-color="#ffffff" preserveAspectRatio="xMidYMid meet" height="1109" width="1500" xmlns="http://www.w3.org/2000/svg" xmlns:xlink="http://www.w3.org/1999/xlink"><g id="tight-bounds" transform="matrix(1,0,0,1,0.013225768057935738,-0.09999999999999432)"><svg viewBox="0 0 333.97354846388413 247.2" height="247.2" width="333.97354846388413"><g><svg viewBox="0 0 395.52 292.75535278079997" height="247.2" width="333.97354846388413"><g transform="matrix(1,0,0,1,0,180.9345527808)"><svg viewBox="0 0 395.52 111.82079999999999" height="111.82079999999999" width="395.52"><g id="textblocktransform"><svg viewBox="0 0 395.52 111.82079999999999" height="111.82079999999999" width="395.52" id="textblock"><g><svg viewBox="0 0 395.52 111.82079999999999" height="111.82079999999999" width="395.52"><g transform="matrix(1,0,0,1,0,0)"><svg width="395.52" viewBox="1.7 -35.9 128.74 36.4" height="111.82079999999999" data-palette-color="#3d3839"><g class="wordmark-text-0" data-fill-palette-color="primary" id="text-0"><path d="M21.7 0.5L21.7 0.5Q17.35 0.5 13.7-0.28 10.05-1.05 7.35-3.05 4.65-5.05 3.18-8.6 1.7-12.15 1.7-17.7L1.7-17.7Q1.7-23.2 3.25-26.75 4.8-30.3 7.48-32.3 10.15-34.3 13.55-35.1 16.95-35.9 20.65-35.9L20.65-35.9Q23.1-35.9 25.15-35.65 27.2-35.4 28.85-35L28.85-35 35.65-31.05 32.15-22.25 21.1-25.6Q18.95-25.6 17.15-24.93 15.35-24.25 14.28-22.53 13.2-20.8 13.2-17.65L13.2-17.65Q13.2-12.85 15.28-10.93 17.35-9 21.15-9L21.15-9Q22.6-9 23.55-9.18 24.5-9.35 25.15-9.6L25.15-9.6 25.15-12.35 20.8-12.35 20.8-20.25 36.7-20.25 37.25-17.25 36.15-12.1 36.15-1.6Q35.6-1.4 33.68-0.9 31.75-0.4 28.7 0.05 25.65 0.5 21.7 0.5ZM59.6 0L42.65 0 42.65-27.35 41.65-32.35 42.65-35.4 59.6-35.4Q63.15-35.4 66.47-34.73 69.8-34.05 72.42-32.2 75.05-30.35 76.6-26.9 78.15-23.45 78.15-17.95L78.15-17.95Q78.15-12.45 76.57-8.93 75-5.4 72.35-3.45 69.7-1.5 66.4-0.75 63.1 0 59.6 0L59.6 0ZM53.75-25.9L53.75-9.5 57.55-9.5Q60.5-9.5 62.52-10.15 64.55-10.8 65.6-12.63 66.65-14.45 66.65-17.95L66.65-17.95Q66.65-21.5 65.57-23.18 64.5-24.85 62.47-25.38 60.45-25.9 57.55-25.9L57.55-25.9 53.75-25.9ZM99.85 0.5L99.85 0.5Q96.4 0.5 93.17-0.3 89.95-1.1 87.4-3.1 84.85-5.1 83.35-8.65 81.85-12.2 81.85-17.7L81.85-17.7Q81.85-22.65 83.3-26.13 84.75-29.6 87.25-31.75 89.75-33.9 93-34.9 96.25-35.9 99.85-35.9L99.85-35.9Q102.4-35.9 104.82-35.5 107.25-35.1 108.35-34.6L108.35-34.6 114.4-29.55 109.4-21.3 99.85-25.7Q98.15-25.7 96.67-24.78 95.2-23.85 94.27-22.08 93.35-20.3 93.35-17.7L93.35-17.7Q93.35-14.4 94.37-12.63 95.4-10.85 97.32-10.2 99.25-9.55 101.9-9.55L101.9-9.55Q104.45-9.55 106.72-10.08 109-10.6 110.75-11.3 112.5-12 113.4-12.5L113.4-12.5 113.4-2.5Q112.4-2 110.57-1.28 108.75-0.55 106.07-0.03 103.4 0.5 99.85 0.5ZM130.44 0L119.39 0 119.39-27.4 118.89-32.4 119.39-35.4 130.44-35.4 130.44 0Z" fill="#ffffff" data-fill-palette-color="primary"></path></g></svg></g></svg></g></svg></g></svg></g><g transform="matrix(1,0,0,1,120.49182719999999,0)"><svg viewBox="0 0 154.5363456 154.5363456" height="154.5363456" width="154.5363456"><g><svg xmlns="http://www.w3.org/2000/svg" xmlns:xlink="http://www.w3.org/1999/xlink" version="1.1" x="0" y="0" viewBox="24.200000000000003 24.200000000000003 51.599999999999994 51.599999999999994" style="enable-background:new 0 0 100 100;" xml:space="preserve" height="154.5363456" width="154.5363456" class="icon-icon-0" data-fill-palette-color="accent" id="icon-0"><g fill="#ffc604" data-fill-palette-color="accent"><rect x="42.3" y="49.1" transform="matrix(0.2934 -0.956 0.956 0.2934 -12.4786 83.2242)" width="15.6" height="2" fill="#ffffff" data-fill-palette-color="accent"></rect><polygon points="43.4,44.4 37.7,50.2 43.4,55.9 44.8,54.5 40.5,50.2 44.8,45.8  " fill="#ffffff" data-fill-palette-color="accent"></polygon><polygon points="54.7,45.8 59,50.2 54.7,54.5 56.1,55.9 61.8,50.2 56.1,44.4  " fill="#ffffff" data-fill-palette-color="accent"></polygon><path d="M62 33.9c-0.2-0.2-0.4-0.3-0.7-0.3H38.8c-0.3 0-0.5 0.1-0.7 0.3l-4.4 4.4c-0.2 0.2-0.3 0.4-0.3 0.7v22.3c0 0.3 0.1 0.5 0.3 0.7l4.4 4.4c0.2 0.2 0.4 0.3 0.7 0.3h22.5c0.3 0 0.5-0.1 0.7-0.3l4.4-4.4c0.2-0.2 0.3-0.4 0.3-0.7V39c0-0.3-0.1-0.5-0.3-0.7L62 33.9zM64.7 60.9l-3.8 3.8H39.2l-3.8-3.8V39.4l3.8-3.8h21.7l3.8 3.8V60.9z" fill="#ffffff" data-fill-palette-color="accent"></path><path d="M29.3 39.8h-4.1c-0.5 0-1 0.4-1 1 0 0.5 0.4 1 1 1h4.1c0.5 0 1-0.4 1-1C30.3 40.2 29.9 39.8 29.3 39.8z" fill="#ffffff" data-fill-palette-color="accent"></path><path d="M29.3 44.5h-4.1c-0.5 0-1 0.4-1 1 0 0.5 0.4 1 1 1h4.1c0.5 0 1-0.4 1-1C30.3 44.9 29.9 44.5 29.3 44.5z" fill="#ffffff" data-fill-palette-color="accent"></path><path d="M29.3 49.2h-4.1c-0.5 0-1 0.4-1 1 0 0.5 0.4 1 1 1h4.1c0.5 0 1-0.4 1-1C30.3 49.6 29.9 49.2 29.3 49.2z" fill="#ffffff" data-fill-palette-color="accent"></path><path d="M29.3 53.9h-4.1c-0.5 0-1 0.4-1 1 0 0.5 0.4 1 1 1h4.1c0.5 0 1-0.4 1-1C30.3 54.3 29.9 53.9 29.3 53.9z" fill="#ffffff" data-fill-palette-color="accent"></path><path d="M29.3 58.6h-4.1c-0.5 0-1 0.4-1 1 0 0.5 0.4 1 1 1h4.1c0.5 0 1-0.4 1-1C30.3 59 29.9 58.6 29.3 58.6z" fill="#ffffff" data-fill-palette-color="accent"></path><path d="M70.7 41.7h4.1c0.5 0 1-0.4 1-1 0-0.5-0.4-1-1-1h-4.1c-0.5 0-1 0.4-1 1C69.7 41.3 70.1 41.7 70.7 41.7z" fill="#ffffff" data-fill-palette-color="accent"></path><path d="M74.7 44.5h-4.1c-0.5 0-1 0.4-1 1 0 0.5 0.4 1 1 1h4.1c0.5 0 1-0.4 1-1C75.7 44.9 75.3 44.5 74.7 44.5z" fill="#ffffff" data-fill-palette-color="accent"></path><path d="M74.7 49.2h-4.1c-0.5 0-1 0.4-1 1 0 0.5 0.4 1 1 1h4.1c0.5 0 1-0.4 1-1C75.7 49.6 75.3 49.2 74.7 49.2z" fill="#ffffff" data-fill-palette-color="accent"></path><path d="M74.7 53.9h-4.1c-0.5 0-1 0.4-1 1 0 0.5 0.4 1 1 1h4.1c0.5 0 1-0.4 1-1C75.7 54.3 75.3 53.9 74.7 53.9z" fill="#ffffff" data-fill-palette-color="accent"></path><path d="M74.7 58.6h-4.1c-0.5 0-1 0.4-1 1 0 0.5 0.4 1 1 1h4.1c0.5 0 1-0.4 1-1C75.7 59 75.3 58.6 74.7 58.6z" fill="#ffffff" data-fill-palette-color="accent"></path><path d="M40.6 69.7c-0.5 0-1 0.4-1 1v4.1c0 0.5 0.4 1 1 1 0.5 0 1-0.4 1-1v-4.1C41.6 70.1 41.2 69.7 40.6 69.7z" fill="#ffffff" data-fill-palette-color="accent"></path><path d="M45.3 69.7c-0.5 0-1 0.4-1 1v4.1c0 0.5 0.4 1 1 1 0.5 0 1-0.4 1-1v-4.1C46.3 70.1 45.8 69.7 45.3 69.7z" fill="#ffffff" data-fill-palette-color="accent"></path><path d="M50 69.7c-0.5 0-1 0.4-1 1v4.1c0 0.5 0.4 1 1 1 0.5 0 1-0.4 1-1v-4.1C51 70.1 50.5 69.7 50 69.7z" fill="#ffffff" data-fill-palette-color="accent"></path><path d="M54.7 69.7c-0.5 0-1 0.4-1 1v4.1c0 0.5 0.4 1 1 1 0.5 0 1-0.4 1-1v-4.1C55.7 70.1 55.2 69.7 54.7 69.7z" fill="#ffffff" data-fill-palette-color="accent"></path><path d="M59.4 69.7c-0.5 0-1 0.4-1 1v4.1c0 0.5 0.4 1 1 1 0.5 0 1-0.4 1-1v-4.1C60.4 70.1 59.9 69.7 59.4 69.7z" fill="#ffffff" data-fill-palette-color="accent"></path><path d="M40.6 30.3c0.5 0 1-0.4 1-1v-4.1c0-0.5-0.4-1-1-1-0.5 0-1 0.4-1 1v4.1C39.6 29.9 40.1 30.3 40.6 30.3z" fill="#ffffff" data-fill-palette-color="accent"></path><path d="M45.3 30.3c0.5 0 1-0.4 1-1v-4.1c0-0.5-0.4-1-1-1-0.5 0-1 0.4-1 1v4.1C44.3 29.9 44.8 30.3 45.3 30.3z" fill="#ffffff" data-fill-palette-color="accent"></path><path d="M50 30.3c0.5 0 1-0.4 1-1v-4.1c0-0.5-0.4-1-1-1-0.5 0-1 0.4-1 1v4.1C49 29.9 49.5 30.3 50 30.3z" fill="#ffffff" data-fill-palette-color="accent"></path><path d="M54.7 30.3c0.5 0 1-0.4 1-1v-4.1c0-0.5-0.4-1-1-1-0.5 0-1 0.4-1 1v4.1C53.7 29.9 54.2 30.3 54.7 30.3z" fill="#ffffff" data-fill-palette-color="accent"></path><path d="M59.4 30.3c0.5 0 1-0.4 1-1v-4.1c0-0.5-0.4-1-1-1-0.5 0-1 0.4-1 1v4.1C58.4 29.9 58.8 30.3 59.4 30.3z" fill="#ffffff" data-fill-palette-color="accent"></path></g></svg></g></svg></g><g></g></svg></g><defs></defs></svg><rect width="333.97354846388413" height="247.2" fill="none" stroke="none" visibility="hidden"></rect></g></svg></g></svg>